<mxfile host="65bd71144e">
    <diagram id="eVOJDjGWHXq2HmaQxxGd" name="Page-1">
        <mxGraphModel dx="1770" dy="638" grid="1" gridSize="10" guides="1" tooltips="1" connect="1" arrows="1" fold="1" page="1" pageScale="1" pageWidth="850" pageHeight="1100" background="#FFFFFF" math="0" shadow="0">
            <root>
                <mxCell id="0"/>
                <mxCell id="1" parent="0"/>
                <mxCell id="2" value="dato[0][0]" style="whiteSpace=wrap;html=1;aspect=fixed;strokeColor=#A50040;fillColor=#d80073;fontColor=#ffffff;" vertex="1" parent="1">
                    <mxGeometry x="80" y="280" width="80" height="80" as="geometry"/>
                </mxCell>
                <mxCell id="16" value="dato[0][1]" style="whiteSpace=wrap;html=1;aspect=fixed;strokeColor=#A50040;fillColor=#d80073;fontColor=#ffffff;" vertex="1" parent="1">
                    <mxGeometry x="160" y="280" width="80" height="80" as="geometry"/>
                </mxCell>
                <mxCell id="17" value="dato[0][2]" style="whiteSpace=wrap;html=1;aspect=fixed;strokeColor=#A50040;fillColor=#d80073;fontColor=#ffffff;" vertex="1" parent="1">
                    <mxGeometry x="240" y="280" width="80" height="80" as="geometry"/>
                </mxCell>
                <mxCell id="18" value="dato[1][0]" style="whiteSpace=wrap;html=1;aspect=fixed;strokeColor=#001DBC;fillColor=#0050ef;fontColor=#ffffff;" vertex="1" parent="1">
                    <mxGeometry x="320" y="280" width="80" height="80" as="geometry"/>
                </mxCell>
                <mxCell id="21" value="dato[1][1]" style="whiteSpace=wrap;html=1;aspect=fixed;strokeColor=#001DBC;fillColor=#0050ef;fontColor=#ffffff;" vertex="1" parent="1">
                    <mxGeometry x="400" y="280" width="80" height="80" as="geometry"/>
                </mxCell>
                <mxCell id="22" value="dato[1][2]" style="whiteSpace=wrap;html=1;aspect=fixed;strokeColor=#001DBC;fillColor=#0050ef;fontColor=#ffffff;" vertex="1" parent="1">
                    <mxGeometry x="480" y="280" width="80" height="80" as="geometry"/>
                </mxCell>
                <mxCell id="23" value="dato[2][0]" style="whiteSpace=wrap;html=1;aspect=fixed;strokeColor=#005700;fillColor=#008a00;fontColor=#ffffff;" vertex="1" parent="1">
                    <mxGeometry x="560" y="280" width="80" height="80" as="geometry"/>
                </mxCell>
                <mxCell id="24" value="dato[2][1]" style="whiteSpace=wrap;html=1;aspect=fixed;strokeColor=#005700;fillColor=#008a00;fontColor=#ffffff;" vertex="1" parent="1">
                    <mxGeometry x="640" y="280" width="80" height="80" as="geometry"/>
                </mxCell>
                <mxCell id="25" value="dato[2][2]" style="whiteSpace=wrap;html=1;aspect=fixed;strokeColor=#005700;fillColor=#008a00;fontColor=#ffffff;" vertex="1" parent="1">
                    <mxGeometry x="720" y="280" width="80" height="80" as="geometry"/>
                </mxCell>
                <mxCell id="27" value="&lt;font style=&quot;font-size: 20px;&quot;&gt;1&lt;/font&gt;" style="text;html=1;align=center;verticalAlign=middle;resizable=0;points=[];autosize=1;strokeColor=none;fillColor=none;fontColor=#000000;" vertex="1" parent="1">
                    <mxGeometry x="80" y="360" width="30" height="40" as="geometry"/>
                </mxCell>
                <mxCell id="28" value="&lt;font style=&quot;font-size: 20px;&quot;&gt;4&lt;/font&gt;" style="text;html=1;align=center;verticalAlign=middle;resizable=0;points=[];autosize=1;strokeColor=none;fillColor=none;fontColor=#000000;" vertex="1" parent="1">
                    <mxGeometry x="320" y="360" width="30" height="40" as="geometry"/>
                </mxCell>
                <mxCell id="29" value="&lt;font style=&quot;font-size: 20px;&quot;&gt;7&lt;/font&gt;" style="text;html=1;align=center;verticalAlign=middle;resizable=0;points=[];autosize=1;strokeColor=none;fillColor=none;fontColor=#000000;" vertex="1" parent="1">
                    <mxGeometry x="560" y="360" width="30" height="40" as="geometry"/>
                </mxCell>
                <mxCell id="30" value="&lt;font style=&quot;font-size: 20px;&quot;&gt;3&lt;/font&gt;" style="text;html=1;align=center;verticalAlign=middle;resizable=0;points=[];autosize=1;strokeColor=none;fillColor=none;fontColor=#000000;" vertex="1" parent="1">
                    <mxGeometry x="240" y="360" width="30" height="40" as="geometry"/>
                </mxCell>
                <mxCell id="32" value="&lt;font style=&quot;font-size: 20px;&quot;&gt;2&lt;/font&gt;" style="text;html=1;align=center;verticalAlign=middle;resizable=0;points=[];autosize=1;strokeColor=none;fillColor=none;fontColor=#000000;" vertex="1" parent="1">
                    <mxGeometry x="160" y="360" width="30" height="40" as="geometry"/>
                </mxCell>
                <mxCell id="34" value="&lt;font style=&quot;font-size: 20px;&quot;&gt;5&lt;/font&gt;" style="text;html=1;align=center;verticalAlign=middle;resizable=0;points=[];autosize=1;strokeColor=none;fillColor=none;fontColor=#000000;" vertex="1" parent="1">
                    <mxGeometry x="400" y="360" width="30" height="40" as="geometry"/>
                </mxCell>
                <mxCell id="35" value="&lt;span style=&quot;font-size: 20px;&quot;&gt;6&lt;/span&gt;" style="text;html=1;align=center;verticalAlign=middle;resizable=0;points=[];autosize=1;strokeColor=none;fillColor=none;fontColor=#000000;" vertex="1" parent="1">
                    <mxGeometry x="480" y="360" width="30" height="40" as="geometry"/>
                </mxCell>
                <mxCell id="36" value="&lt;font style=&quot;font-size: 20px;&quot;&gt;8&lt;/font&gt;" style="text;html=1;align=center;verticalAlign=middle;resizable=0;points=[];autosize=1;strokeColor=none;fillColor=none;fontColor=#000000;" vertex="1" parent="1">
                    <mxGeometry x="640" y="360" width="30" height="40" as="geometry"/>
                </mxCell>
                <mxCell id="37" value="&lt;font style=&quot;font-size: 20px;&quot;&gt;9&lt;/font&gt;" style="text;html=1;align=center;verticalAlign=middle;resizable=0;points=[];autosize=1;strokeColor=none;fillColor=none;fontColor=#000000;" vertex="1" parent="1">
                    <mxGeometry x="720" y="360" width="30" height="40" as="geometry"/>
                </mxCell>
                <mxCell id="38" value="Acceso #" style="text;html=1;align=center;verticalAlign=middle;resizable=0;points=[];autosize=1;strokeColor=none;fillColor=none;fontSize=20;fontColor=#000000;" vertex="1" parent="1">
                    <mxGeometry x="-35" y="360" width="110" height="40" as="geometry"/>
                </mxCell>
                <mxCell id="39" value="Arreglo 3x3&amp;nbsp;" style="text;html=1;align=center;verticalAlign=middle;resizable=0;points=[];autosize=1;strokeColor=none;fillColor=none;fontSize=20;fontColor=#000000;" vertex="1" parent="1">
                    <mxGeometry x="-45" y="300" width="130" height="40" as="geometry"/>
                </mxCell>
            </root>
        </mxGraphModel>
    </diagram>
</mxfile>